<svg width="1024" height="1024" viewBox="0 0 1024 1024" fill="none" xmlns="http://www.w3.org/2000/svg">
  <defs>
    <linearGradient id="bg" x1="120" y1="166" x2="892" y2="854" gradientUnits="userSpaceOnUse">
      <stop stop-color="#0F205E"/>
      <stop offset="0.52" stop-color="#1B6CA9"/>
      <stop offset="1" stop-color="#3DD1BD"/>
    </linearGradient>
    <radialGradient id="violet" cx="0" cy="0" r="1" gradientUnits="userSpaceOnUse" gradientTransform="translate(704 328) rotate(90) scale(184)">
      <stop stop-color="#A67CFF" stop-opacity="0.58"/>
      <stop offset="1" stop-color="#A67CFF" stop-opacity="0"/>
    </radialGradient>
    <radialGradient id="shine" cx="0" cy="0" r="1" gradientUnits="userSpaceOnUse" gradientTransform="translate(275 246) rotate(-34) scale(240 170)">
      <stop stop-color="white" stop-opacity="0.18"/>
      <stop offset="1" stop-color="white" stop-opacity="0"/>
    </radialGradient>
    <filter id="shadow" x="42" y="38" width="940" height="940" filterUnits="userSpaceOnUse" color-interpolation-filters="sRGB">
      <feDropShadow dx="0" dy="18" stdDeviation="34" flood-color="#000000" flood-opacity="0.24"/>
    </filter>
  </defs>

  <g filter="url(#shadow)">
    <rect x="87" y="87" width="850" height="850" rx="220" fill="url(#bg)"/>
    <rect x="91" y="91" width="842" height="842" rx="216" stroke="white" stroke-opacity="0.16" stroke-width="8"/>
    <circle cx="704" cy="328" r="184" fill="url(#violet)"/>
    <ellipse cx="356" cy="246" rx="205" ry="156" fill="url(#shine)"/>
  </g>

  <path d="M230 678C258 404 343 189 456 299C508 364 547 567 596 558C651 526 733 268 807 412" stroke="#FBFDFF" stroke-width="121" stroke-linecap="round" stroke-linejoin="round"/>
  <path d="M276 417C338 220 492 178 602 317" stroke="#FBFDFF" stroke-opacity="0.98" stroke-width="78" stroke-linecap="round" stroke-linejoin="round"/>
  <path d="M230 678C258 404 343 189 456 299C508 364 547 567 596 558C651 526 733 268 807 412" stroke="#B7FEFF" stroke-opacity="0.3" stroke-width="47" stroke-linecap="round" stroke-linejoin="round"/>
  <path d="M276 417C338 220 492 178 602 317" stroke="#B7FEFF" stroke-opacity="0.3" stroke-width="31" stroke-linecap="round" stroke-linejoin="round"/>
  <path d="M748 245V307M717 276H779" stroke="white" stroke-opacity="0.72" stroke-width="16" stroke-linecap="round"/>
</svg>